<svg xmlns="http://www.w3.org/2000/svg" width="20.712" height="24" viewBox="0 0 20.711754 23.999924"><path d="M10.347 3.085L2.335.257v17.438l8.012-2.592V3.085" fill="#040606"/><path d="M10.155 3.076L18.474.25v17.438l-8.32-2.592V3.076" fill="#fff"/><path d="M.257 20.748l9.898-3.299V3.075L.257 6.373v14.375" fill="#fff"/><path d="M14.665 20.965l1.402 2.308.74-2.144-2.142-.164M3.623 8.03c-.053-.052.068.421.237.592.298.3.532.34.656.345.275.01.614-.069.815-.153.195-.083.537-.258.666-.512.027-.055.102-.146.055-.371-.035-.174-.146-.235-.28-.225-.135.01-.543.118-.74.178-.198.06-.604.184-.781.222-.177.039-.566-.017-.628-.077M8.616 13.69a87.31 87.31 0 0 1-1.92-.807c-.187-.09-.646-.284-.862-.372.608-.938.992-1.646 1.043-1.754.095-.197.739-1.457.754-1.534.014-.079.033-.37.018-.438-.014-.07-.25.065-.57.173-.321.109-.931.505-1.167.555-.236.05-.992.336-1.379.464s-1.118.352-1.419.433c-.301.081-.564.088-.733.139 0 0 .023.236.067.307.045.07.204.244.39.292.185.05.491.03.631-.002.14-.033.382-.151.414-.203.033-.052-.017-.214.039-.263.055-.048.792-.22 1.07-.304.278-.086 1.342-.452 1.487-.434-.046.152-.902 1.848-1.178 2.354-.276.506-1.878 2.731-2.219 3.123-.259.299-.886 1.061-1.104 1.234.055.015.444-.019.515-.062.44-.272 1.175-1.187 1.412-1.465.703-.825 1.32-1.691 1.81-2.434h.001c.096.04.867.668 1.069.807.2.14.995.583 1.168.656.172.075.833.38.861.277.028-.104-.12-.713-.198-.743" fill="#040606"/><path d="M4.888 22.093c.154.094.3.172.463.25.327.162.696.334 1.048.463.481.18.962.326 1.443.438.267.06.559.112.842.155.026 0 .79.094.945.094h.773c.3-.026.584-.043.885-.086.24-.034.507-.077.764-.137.19-.043.387-.086.576-.146.18-.052.387-.12.584-.19.129-.042.266-.102.404-.154.112-.051.249-.111.378-.163.154-.069.335-.163.507-.25.137-.068.292-.154.438-.24.111-.06.369-.257.506-.257.155 0 .258.137.258.257 0 .25-.335.327-.49.438-.163.112-.36.198-.532.292a9.8 9.8 0 0 1-1.03.464c-.439.164-.92.318-1.35.421-.163.035-.326.078-.489.103-.086.017-.98.155-1.228.155H9.449c-.3-.026-.619-.06-.92-.103-.266-.043-.55-.095-.815-.155a7.454 7.454 0 0 1-.627-.163 9.884 9.884 0 0 1-1.005-.344 9.01 9.01 0 0 1-1.796-.902c-.103-.068-.111-.137-.111-.214 0-.13.094-.25.249-.25.137 0 .412.198.464.224M10.41 3.04v14.432a.292.292 0 0 1-.06.129.196.196 0 0 1-.077.068c-.214.086-9.886 3.333-10.015 3.333-.103 0-.198-.069-.25-.18 0-.009-.008-.017-.008-.035V6.347c.017-.042.026-.102.06-.137.069-.094.19-.111.266-.137.146-.052 9.673-3.247 9.81-3.247.086 0 .275.06.275.215zm-.523 14.217L.524 20.375V6.563l9.363-3.118v13.812" fill="#040606" fill-rule="evenodd"/><path d="M18.734.275v17.377c-.008.198-.146.284-.275.284-.111 0-.919-.275-1.056-.318-1.082-.335-2.173-.67-3.247-1.005-.24-.078-.49-.155-.722-.232-.206-.06-.429-.13-.635-.198-.92-.283-1.856-.567-2.775-.876-.034-.009-.12-.129-.12-.155V3.015c.017-.043.034-.094.077-.129.07-.077 3.015-1.056 4.175-1.443C14.466 1.331 18.339 0 18.459 0c.155 0 .275.112.275.275zm-.524 17.05l-7.79-2.422V3.264L18.21.618v16.708" fill="#040606" fill-rule="evenodd"/><path d="M20.712 20.965l-10.409-3.317.044-14.442 10.365 3.299v14.46" fill="#040606"/><path d="M14.852 7.329l1.34.406 2.444 8.805-1.378-.418-.495-1.808-2.846-.863-.612 1.473-1.378-.418zm.613 2.33l-1.022 2.47 1.878.57-.856-3.04" fill="#fff" fill-rule="evenodd"/></svg>