<svg xmlns="http://www.w3.org/2000/svg" viewBox="0 0 26.458334 26.458332" height="100" width="100"><path d="M13.23 6.615c-.378 0-.774.205-1.479.523C8.034 9.024 4.377 11.114.612 13.08L0 13.4V23.82c0 1.317 1.323 2.64 2.646 2.64h5.291v-5.292c0-.985.373-2.064 1.139-2.83s1.845-1.14 2.83-1.14h2.646c.985 0 2.064.374 2.83 1.14.766.766 1.139 1.845 1.139 2.83v5.291h5.291c1.323 0 2.647-1.323 2.646-2.646V13.404l-.627-.338c-3.717-2-7.428-4-11.16-5.947l-.028-.015-.027-.016c-.543-.317-.918-.473-1.387-.473z" fill="#fff"/><path fill="none" d="M1.669 14.046l-.003.21h.044v-.21z"/><path d="M24.528 12.568v.667c0-.87.594-.2 0-.667z" opacity=".2" fill="#fff"/><path d="M10.583 26.458v-5.291c0-.794.53-1.323 1.323-1.323h2.646c.794 0 1.323.529 1.323 1.323v5.291zM13.23 0c-.795 0-1.942.355-2.647.794C8.996 1.587 0 6.436 0 6.436v3.973c3.504-1.848 6.982-3.82 10.577-5.643l.028-.014.029-.013c.545-.245 1.393-.77 2.595-.77 1.104 0 2.002.417 2.692.818A939.932 939.932 0 0 1 26.458 10.4V6.43S17.462 1.587 15.875.794C15.17.355 14.023 0 13.229 0z" fill="#fff" fill-opacity=".314"/></svg>