<svg xmlns="http://www.w3.org/2000/svg" viewBox="0 0 26.458334 26.458332" height="100" width="100"><g fill="#fff"><path d="M17.198 0H2.646C1.323 0 0 1.323 0 2.646v7.937c0 1.323 1.323 2.646 2.646 2.646h1.323l2.646 2.646 2.645-2.646h7.938c1.323 0 2.646-1.323 2.646-2.646V2.646C19.844 1.323 18.52 0 17.198 0z"/><path d="M9.26 10.583c-1.322 0-2.645 1.323-2.645 2.646v2.646l2.645-2.646h7.938c1.323 0 2.646-1.323 2.646-2.646zm13.23 0c0 1.544-.69 2.778-1.602 3.69-.912.912-2.147 1.602-3.69 1.602h-6.842l-3.741 3.742v1.55c0 1.323 1.323 2.645 2.645 2.645h7.938l2.646 2.646 2.646-2.646h1.323c1.322 0 2.645-1.322 2.645-2.645v-7.938c0-1.323-1.323-2.646-2.645-2.646z" fill-opacity=".314"/></g></svg>