<svg xmlns="http://www.w3.org/2000/svg" viewBox="0 0 26.458334 26.458332" height="100" width="100"><g fill="#fff"><path d="M5.292 2.646c-1.323 0-2.646 1.323-2.646 2.646V9.26h5.292c.721 0 1.38.246 1.975.597l1.603-7.211zm8.934 0l-3.643 16.392-1.354-6.096a1.323 1.323 0 0 0-1.291-1.036H2.646v2.646h4.23l2.058 9.26h3.298l3.643-16.39 1.355 6.095a1.323 1.323 0 0 0 1.291 1.035h5.292v-2.646h-4.23l-2.059-9.26zm6.009 0l1.47 6.614h2.108V5.292c0-1.323-1.323-2.646-2.646-2.646zm-3.69 13.956l-1.602 7.21h6.224c1.323 0 2.646-1.322 2.646-2.645v-3.969H18.52c-.721 0-1.381-.245-1.976-.596zm-13.899.596v3.969c0 1.323 1.323 2.646 2.646 2.646h.932l-1.47-6.615z" fill-opacity=".196"/><path d="M15.811.002a1.323 1.323 0 0 0-1.227 1.034l-4 18.001-1.355-6.095a1.323 1.323 0 0 0-1.291-1.036H1.323a1.323 1.323 0 1 0 0 2.646h5.554l2.415 10.87a1.323 1.323 0 0 0 2.583 0l4-18 1.354 6.094a1.323 1.323 0 0 0 1.292 1.036h6.614a1.323 1.323 0 1 0 0-2.646h-5.553l-2.416-10.87A1.323 1.323 0 0 0 15.811.002z" style="line-height:normal;font-variant-ligatures:normal;font-variant-position:normal;font-variant-caps:normal;font-variant-numeric:normal;font-variant-alternates:normal;font-feature-settings:normal;text-indent:0;text-align:start;text-decoration-line:none;text-decoration-style:solid;text-decoration-color:#000;text-transform:none;text-orientation:mixed;shape-padding:0;isolation:auto;mix-blend-mode:normal" color="#000" font-weight="400" font-family="sans-serif" white-space="normal" overflow="visible" fill-rule="evenodd"/></g></svg>