<svg xmlns="http://www.w3.org/2000/svg" viewBox="0 0 26.458334 26.458332" height="100" width="100"><g fill="#fff" fill-rule="evenodd"><path d="M18.79 0c-.202.39-.516.729-.879.9l-.055.026a1.296 1.296 0 0 0-.632 1.696l.585 1.307c.284.636 1.04.931 1.685.657l.062-.021c.65-.276 1.58-.108 2.088.372l.243.23c.507.479.727 1.402.49 2.063l-.022.056c-.238.665.1 1.397.752 1.646l1.339.51a1.3 1.3 0 0 0 1.656-.728l.022-.057c.074-.183.192-.355.334-.512V0z" fill-opacity=".196"/><path d="M5.609 23.685a1.299 1.299 0 0 1-1.81-.014l-1.012-1.013a1.295 1.295 0 0 1-.013-1.81l.042-.043c.486-.506.663-1.438.393-2.09l-.122-.295c-.268-.649-1.05-1.186-1.756-1.2l-.06-.001A1.3 1.3 0 0 1 0 15.929L0 14.497c0-.697.564-1.275 1.27-1.289l.06-.001c.702-.014 1.487-.548 1.754-1.193l.128-.31c.267-.644.092-1.574-.396-2.082l-.043-.044a1.298 1.298 0 0 1 .014-1.81L3.8 6.756a1.295 1.295 0 0 1 1.81-.014l.044.043c.506.486 1.438.663 2.09.393l.294-.122c.65-.269 1.186-1.05 1.2-1.756l.003-.061a1.3 1.3 0 0 1 1.29-1.27h1.431c.698 0 1.275.564 1.29 1.27l.002.06c.014.701.548 1.486 1.193 1.753l.31.129c.644.267 1.574.092 2.083-.397l.044-.042a1.299 1.299 0 0 1 1.809.014l1.012 1.013c.493.493.502 1.3.014 1.81l-.043.043c-.486.506-.663 1.438-.393 2.09l.122.295c.269.649 1.05 1.186 1.756 1.2l.061.001a1.3 1.3 0 0 1 1.27 1.29v1.432c0 .697-.564 1.275-1.27 1.289l-.06.001c-.702.014-1.486.548-1.754 1.193l-.128.31c-.267.644-.092 1.574.397 2.082l.042.044a1.299 1.299 0 0 1-.014 1.81l-1.013 1.012c-.493.493-1.3.502-1.81.014l-.043-.043c-.506-.486-1.438-.663-2.091-.393l-.294.122c-.649.269-1.186 1.05-1.2 1.756v.061a1.3 1.3 0 0 1-1.29 1.27h-1.431a1.295 1.295 0 0 1-1.29-1.27v-.06c-.013-.701-.547-1.486-1.192-1.753l-.31-.129c-.644-.267-1.574-.092-2.083.397zm4.594-5.958a2.72 2.72 0 1 0 2.083-5.027 2.72 2.72 0 0 0-2.083 5.027z"/></g></svg>