<svg xmlns="http://www.w3.org/2000/svg" width="100" height="100" viewBox="0 0 26.458334 26.458332"><g fill="#fff"><path d="M2.653 5.29C1.33 5.29.007 6.615.007 7.937v15.875c0 1.323 1.323 2.646 2.646 2.646h15.875c1.323 0 2.646-1.323 2.646-2.646v-9.487l-7.39 7.39c-.29.29-.644.509-1.034.639l-7.937 2.645c-2.068.69-4.036-1.278-3.347-3.346l2.646-7.938c.13-.39.349-.743.64-1.034l7.389-7.39z" fill-opacity=".314"/><path d="M21.974.001c-.488.002-.978.18-1.33.527L9.075 12.1l5.292 5.292L25.936 5.82c.678-.67.695-1.943 0-2.646L23.291.528C22.947.173 22.46 0 21.974.001zM8.139 13.034l-1.517 1.517-2.178 6.535 2.488-2.489a1.323 1.323 0 0 1-.046-.342 1.323 1.323 0 0 1 1.323-1.323 1.323 1.323 0 0 1 1.323 1.323 1.323 1.323 0 0 1-1.323 1.323 1.323 1.323 0 0 1-.341-.046l-2.489 2.489 6.534-2.178 1.517-1.517z"/></g></svg>