<svg xmlns="http://www.w3.org/2000/svg" viewBox="0 0 26.458334 26.458332" height="100" width="100"><path d="M2.632 3.32C1.31 3.32-.013 4.645-.013 5.967v15.875c0 1.323 1.323 2.646 2.645 2.646h15.875c1.323 0 2.646-1.323 2.646-2.646v-7.069l-5.519 5.52c-2.044 2.043-5.438 2.043-7.482 0L4.22 16.36c-2.115-2.03-2.15-5.486-.077-7.56 2.073-2.072 5.529-2.037 7.56.078l-.038-.038.227.227 5.746-5.746zm15.875 0zm.334.031zm.265.06zm.239.082zm.239.11zm.23.134zm.22.155zm.208.177zm.194.197l-8.543 8.542-2.098-2.098a2.646 2.646 0 1 0-3.742 3.742l3.97 3.969a2.646 2.646 0 0 0 3.74 0l7.39-7.39V5.966c0-.61-.284-1.22-.717-1.7z" fill="#fff" fill-opacity=".314"/><path d="M23.8 4.644L11.892 16.55 7.924 12.58" fill="none" stroke="#fbfbfb" stroke-width="5.2916" stroke-linecap="round" stroke-linejoin="round"/></svg>