<svg xmlns="http://www.w3.org/2000/svg" width="100" height="100" viewBox="0 0 26.458334 26.458332"><g fill="#fff"><path d="M7.937 5.301c-1.323 0-2.645 1.323-2.645 2.646v10.735l.95-4.121h3.9l-.848 3.672a1.323 1.323 0 1 0 2.579.594l.984-4.266h3.037a1.323 1.323 0 1 0 0-2.646h-2.426l.915-3.968h2.815a1.323 1.323 0 1 0 0-2.646zm13.01 0c.153.415.238.86.238 1.323 0 1.685-1.104 3.142-2.61 3.709.794.73 1.306 1.763 1.306 2.905 0 2.181-1.843 3.999-4.024 3.968h.037-.932l-.504 2.182c-.461 2.13-2.647 3.517-4.77 3.027-1.028-.237-1.869-.88-2.412-1.715a4.084 4.084 0 0 1-1.984 1.565v1.557c0 1.323 1.322 2.646 2.645 2.646h15.875c1.323 0 2.646-1.323 2.646-2.646V7.947c0-1.323-1.323-2.646-2.646-2.646zM7.77 7.947h3.899l-.916 3.968H6.853z" fill-opacity=".314"/><path style="line-height:normal;font-variant-ligatures:normal;font-variant-position:normal;font-variant-caps:normal;font-variant-numeric:normal;font-variant-alternates:normal;font-feature-settings:normal;text-indent:0;text-align:start;text-decoration-line:none;text-decoration-style:solid;text-decoration-color:#000;text-transform:none;text-orientation:mixed;shape-padding:0;isolation:auto;mix-blend-mode:normal" d="M7.957-.01a1.323 1.323 0 0 0-1.308 1.045L5.664 5.3H2.646a1.323 1.323 0 1 0 0 2.646h2.407l-.915 3.968H1.342a1.323 1.323 0 1 0 0 2.646h2.185l-.847 3.672a1.323 1.323 0 1 0 2.578.594l.984-4.266h3.9l-.848 3.672a1.323 1.323 0 1 0 2.579.594l.984-4.266h3.037a1.323 1.323 0 1 0 0-2.646h-2.426l.915-3.968h2.815a1.323 1.323 0 1 0 0-2.646h-2.204l.847-3.672a1.323 1.323 0 0 0-1.269-1.638 1.323 1.323 0 0 0-1.309 1.044L12.28 5.3h-3.9l.848-3.672a1.323 1.323 0 0 0-1.27-1.638zm-.188 7.957h3.899l-.916 3.968H6.853z" color="#000" font-weight="400" font-family="sans-serif" white-space="normal" overflow="visible" fill-rule="evenodd"/></g></svg>