<?xml version="1.0" encoding="UTF-8" standalone="no"?>
<svg
   xmlns:dc="http://purl.org/dc/elements/1.1/"
   xmlns:cc="http://creativecommons.org/ns#"
   xmlns:rdf="http://www.w3.org/1999/02/22-rdf-syntax-ns#"
   xmlns:svg="http://www.w3.org/2000/svg"
   xmlns="http://www.w3.org/2000/svg"
   xmlns:sodipodi="http://sodipodi.sourceforge.net/DTD/sodipodi-0.dtd"
   xmlns:inkscape="http://www.inkscape.org/namespaces/inkscape"
   width="50"
   height="50"
   version="1.1"
   id="svg4"
   sodipodi:docname="add.svg"
   inkscape:version="0.92.1 r15371">
  <metadata
     id="metadata10">
    <rdf:RDF>
      <cc:Work
         rdf:about="">
        <dc:format>image/svg+xml</dc:format>
        <dc:type
           rdf:resource="http://purl.org/dc/dcmitype/StillImage" />
        <dc:title></dc:title>
      </cc:Work>
    </rdf:RDF>
  </metadata>
  <defs
     id="defs8" />
  <sodipodi:namedview
     pagecolor="#ffffff"
     bordercolor="#666666"
     borderopacity="1"
     objecttolerance="10"
     gridtolerance="10"
     guidetolerance="10"
     inkscape:pageopacity="0"
     inkscape:pageshadow="2"
     inkscape:window-width="640"
     inkscape:window-height="480"
     id="namedview6"
     showgrid="false"
     fit-margin-top="0"
     fit-margin-left="0"
     fit-margin-right="0"
     fit-margin-bottom="0"
     inkscape:zoom="0.50533333"
     inkscape:cx="345.31662"
     inkscape:cy="753.04222"
     inkscape:current-layer="svg4" />
  <path
     glyph-name="add"
     unicode=""
     d="m 49.999999,21.6285 v 6.8066 q 0,1.3995 -1.017812,2.4173 -1.017812,1.0178 -2.417303,0.9542 H 31.806615 v 14.8219 q 0,1.3995 -1.017812,2.3537 Q 29.770992,49.9364 28.371501,50 h -6.806616 q -1.399491,0 -2.417303,-1.0178 -1.017811,-1.0178 -0.954198,-2.3537 V 31.8066 H 3.4351144 q -1.4631043,0 -2.4173027,-0.9542 Q 0.06361323,29.8982 0,28.4351 V 21.6285 Q 0,20.1654 1.0178117,19.2112 2.0356234,18.257 3.4351144,18.1934 H 18.193384 V 3.4351 q 0,-1.3995 0.954198,-2.4173 Q 20.101781,0 21.564885,0 h 6.806616 q 1.463104,0 2.417302,1.0178 0.954199,1.0178 1.017812,2.4173 v 14.7583 h 14.758269 q 1.463105,0 2.417303,1.0178 0.954199,1.0178 1.017812,2.4173 z"
     horiz-adv-x="785.7"
     id="path2"
     inkscape:connector-curvature="0"
     style="stroke-width:1" />
</svg>
