<?xml version="1.0" encoding="UTF-8" standalone="no"?>
<svg
   xmlns:dc="http://purl.org/dc/elements/1.1/"
   xmlns:cc="http://creativecommons.org/ns#"
   xmlns:rdf="http://www.w3.org/1999/02/22-rdf-syntax-ns#"
   xmlns:svg="http://www.w3.org/2000/svg"
   xmlns="http://www.w3.org/2000/svg"
   xmlns:sodipodi="http://sodipodi.sourceforge.net/DTD/sodipodi-0.dtd"
   xmlns:inkscape="http://www.inkscape.org/namespaces/inkscape"
   width="49.999996"
   height="49.840698"
   version="1.1"
   id="svg4"
   sodipodi:docname="delete.svg"
   inkscape:version="0.92.1 r15371">
  <metadata
     id="metadata10">
    <rdf:RDF>
      <cc:Work
         rdf:about="">
        <dc:format>image/svg+xml</dc:format>
        <dc:type
           rdf:resource="http://purl.org/dc/dcmitype/StillImage" />
        <dc:title></dc:title>
      </cc:Work>
    </rdf:RDF>
  </metadata>
  <defs
     id="defs8" />
  <sodipodi:namedview
     pagecolor="#ffffff"
     bordercolor="#666666"
     borderopacity="1"
     objecttolerance="10"
     gridtolerance="10"
     guidetolerance="10"
     inkscape:pageopacity="0"
     inkscape:pageshadow="2"
     inkscape:window-width="640"
     inkscape:window-height="480"
     id="namedview6"
     showgrid="false"
     fit-margin-top="0"
     fit-margin-left="0"
     fit-margin-right="0"
     fit-margin-bottom="0"
     inkscape:zoom="0.50533333"
     inkscape:cx="345.31662"
     inkscape:cy="709.04222"
     inkscape:current-layer="svg4" />
  <path
     glyph-name="delete"
     unicode=""
     d="m 47.452227,2.4681 q 2.54777,2.4682 2.54777,5.8918 0,3.4235 -2.54777,5.8917 L 36.70382,25 47.452227,35.7484 q 2.54777,2.4681 2.54777,5.8121 0,3.3439 -2.54777,5.8917 -2.388535,2.3885 -5.812102,2.3885 -3.423567,0 -5.891719,-2.3885 L 24.999999,36.7038 14.251592,47.4522 q -2.388535,2.3885 -5.8917199,2.3885 -3.5031845,0 -5.8917194,-2.3885 Q 0,44.9841 0,41.5605 0,38.1369 2.4681527,35.7484 L 13.21656,25 2.4681527,14.2516 Q 0,11.7038 0,8.3599 0,5.0159 2.4681527,2.4681 4.8566876,0 8.3598721,0 11.863057,0 14.251592,2.4681 L 24.999999,13.2165 35.748406,2.4681 Q 38.136941,0 41.640125,0 45.14331,0 47.452227,2.4681 Z"
     horiz-adv-x="628"
     id="path2"
     inkscape:connector-curvature="0"
     style="stroke-width:1" />
</svg>
