<?xml version="1.0" encoding="UTF-8" standalone="no"?>
<svg
   xmlns:dc="http://purl.org/dc/elements/1.1/"
   xmlns:cc="http://creativecommons.org/ns#"
   xmlns:rdf="http://www.w3.org/1999/02/22-rdf-syntax-ns#"
   xmlns:svg="http://www.w3.org/2000/svg"
   xmlns="http://www.w3.org/2000/svg"
   xmlns:sodipodi="http://sodipodi.sourceforge.net/DTD/sodipodi-0.dtd"
   xmlns:inkscape="http://www.inkscape.org/namespaces/inkscape"
   width="50"
   height="49.999237"
   version="1.1"
   id="svg4"
   sodipodi:docname="download.svg"
   inkscape:version="0.92.1 r15371">
  <metadata
     id="metadata10">
    <rdf:RDF>
      <cc:Work
         rdf:about="">
        <dc:format>image/svg+xml</dc:format>
        <dc:type
           rdf:resource="http://purl.org/dc/dcmitype/StillImage" />
        <dc:title></dc:title>
      </cc:Work>
    </rdf:RDF>
  </metadata>
  <defs
     id="defs8" />
  <sodipodi:namedview
     pagecolor="#ffffff"
     bordercolor="#666666"
     borderopacity="1"
     objecttolerance="10"
     gridtolerance="10"
     guidetolerance="10"
     inkscape:pageopacity="0"
     inkscape:pageshadow="2"
     inkscape:window-width="640"
     inkscape:window-height="480"
     id="namedview6"
     showgrid="false"
     fit-margin-top="0"
     fit-margin-left="0"
     fit-margin-right="0"
     fit-margin-bottom="0"
     inkscape:zoom="0.25266667"
     inkscape:cx="396.2272"
     inkscape:cy="756.34972"
     inkscape:current-layer="svg4" />
  <path
     glyph-name="download"
     unicode=""
     d="m 8.747323e-4,39.167437 v -3.8952 q 0,-1.7608 1.2806080677,-2.9881 1.2806081,-1.2272 3.0414442,-1.2806 1.7608361,-0.053 2.9880855,1.2806 1.2272494,1.334 1.2806081,2.9881 v 3.8952 q 0,0.9071 0.640304,1.5474 0.640304,0.6403 1.6007594,0.6936 h 28.333454 q 0.960456,0 1.60076,-0.6936 0.640304,-0.6937 0.640304,-1.5474 v -3.8952 q 0,-1.7608 1.280608,-2.9881 1.280608,-1.2272 2.988086,-1.2806 1.707477,-0.053 3.041444,1.2806 1.333967,1.334 1.280608,2.9881 v 3.8952 q 0,4.4821 -3.148161,7.6303 -3.148162,3.1481 -7.683649,3.2015 H 10.832684 q -4.4821276,0 -7.6836478,-3.2015 -3.20152014,-3.2016 -3.1481614677,-7.6303 z M 8.2714685,20.011637 q 0,-1.7608 1.2806081,-3.0414 1.2272494,-1.2273 2.9880854,-1.2273 1.760836,0 3.041444,1.2273 l 5.60266,5.656 V 4.2708374 q 0,-1.7608 1.280608,-3.0414 1.280608,-1.28069996 2.988086,-1.22729996 1.707477,0.053 3.041444,1.22729996 1.333967,1.1738 1.280608,3.0414 V 22.626237 l 5.869454,-5.8695 q 1.280608,-1.2806 3.041444,-1.2806 1.760836,0 2.988086,1.2806 1.280608,1.2273 1.280608,2.9881 0,1.7609 -1.280608,3.0415 l -13.179592,13.1796 q -1.280608,1.3339 -3.041444,1.3339 -1.707478,0 -2.988086,-1.3339 L 9.5520766,23.053137 q -1.2806081,-1.2807 -1.2806081,-3.0415 z"
     horiz-adv-x="937.5"
     id="path2"
     inkscape:connector-curvature="0"
     style="stroke-width:1" />
</svg>
