<svg xmlns="http://www.w3.org/2000/svg" height="32" width="32" viewBox="0 0 32 32"><g stroke-width="3.128" fill="#fff"><path d="M3.197 6.426C1.6 6.426 0 8.023 0 9.62v19.182C0 30.4 1.599 32 3.197 32h19.18c1.598 0 3.197-1.599 3.197-3.197V26.02a5.983 5.983 0 0 1-1.115-.904L20 20.658l-4.459 4.46c-2.35 2.446-6.35 2.488-8.748.089-2.399-2.399-2.357-6.398.09-8.748L11.342 12l-4.47-4.47a5.92 5.92 0 0 1-.874-1.104z" fill-opacity=".314"/><path d="M11.135.012c-2.805 0-4.187 3.41-2.175 5.364L15.584 12 8.96 18.624a3.123 3.123 0 1 0 4.416 4.416L20 16.416l6.624 6.624a3.123 3.123 0 1 0 4.416-4.416L24.416 12l6.624-6.624c2.043-1.985.578-5.445-2.27-5.361a3.123 3.123 0 0 0-2.146.945L20 7.584 13.376.96a3.123 3.123 0 0 0-2.241-.948z" style="line-height:normal;font-variant-ligatures:normal;font-variant-position:normal;font-variant-caps:normal;font-variant-numeric:normal;font-variant-alternates:normal;font-feature-settings:normal;text-indent:0;text-align:start;text-decoration-line:none;text-decoration-style:solid;text-decoration-color:#000;text-transform:none;text-orientation:mixed;shape-padding:0;isolation:auto;mix-blend-mode:normal" color="#000" font-weight="400" font-family="sans-serif" white-space="normal" overflow="visible"/></g></svg>