<svg xmlns="http://www.w3.org/2000/svg" viewBox="0 0 32 32" width="32" height="32"><path style="line-height:normal;font-variant-ligatures:normal;font-variant-position:normal;font-variant-caps:normal;font-variant-numeric:normal;font-variant-alternates:normal;font-feature-settings:normal;text-indent:0;text-align:start;text-decoration-line:none;text-decoration-style:solid;text-decoration-color:#000;text-transform:none;text-orientation:mixed;shape-padding:0;isolation:auto;mix-blend-mode:normal" d="M4.18 0C.44 0-1.404 4.55 1.28 7.156l8.832 8.836-8.832 8.836a4.168 4.168 0 0 0-.06 5.952 4.163 4.163 0 0 0 5.948-.06L16 21.882l8.832 8.836a4.163 4.163 0 0 0 5.948.06 4.168 4.168 0 0 0-.06-5.95l-8.832-8.837 8.832-8.836c2.723-2.649.771-7.264-3.025-7.152a4.163 4.163 0 0 0-2.863 1.261L16 10.101 7.168 1.265A4.163 4.163 0 0 0 4.18 0z" color="#000" font-weight="400" font-family="sans-serif" white-space="normal" overflow="visible" fill="#fff" stroke-width="3.128"/></svg>