<?xml version="1.0" encoding="UTF-8" standalone="no"?>
<svg
   xmlns:dc="http://purl.org/dc/elements/1.1/"
   xmlns:cc="http://creativecommons.org/ns#"
   xmlns:rdf="http://www.w3.org/1999/02/22-rdf-syntax-ns#"
   xmlns:svg="http://www.w3.org/2000/svg"
   xmlns="http://www.w3.org/2000/svg"
   xmlns:sodipodi="http://sodipodi.sourceforge.net/DTD/sodipodi-0.dtd"
   xmlns:inkscape="http://www.inkscape.org/namespaces/inkscape"
   width="49.999996"
   height="44.184643"
   version="1.1"
   id="svg4"
   sodipodi:docname="export.svg"
   inkscape:version="0.92.1 r15371">
  <metadata
     id="metadata10">
    <rdf:RDF>
      <cc:Work
         rdf:about="">
        <dc:format>image/svg+xml</dc:format>
        <dc:type
           rdf:resource="http://purl.org/dc/dcmitype/StillImage" />
        <dc:title></dc:title>
      </cc:Work>
    </rdf:RDF>
  </metadata>
  <defs
     id="defs8" />
  <sodipodi:namedview
     pagecolor="#ffffff"
     bordercolor="#666666"
     borderopacity="1"
     objecttolerance="10"
     gridtolerance="10"
     guidetolerance="10"
     inkscape:pageopacity="0"
     inkscape:pageshadow="2"
     inkscape:window-width="640"
     inkscape:window-height="480"
     id="namedview6"
     showgrid="false"
     fit-margin-top="0"
     fit-margin-left="0"
     fit-margin-right="0"
     fit-margin-bottom="0"
     inkscape:zoom="0.50533333"
     inkscape:cx="345.31662"
     inkscape:cy="825.06186"
     inkscape:current-layer="svg4" />
  <path
     glyph-name="export"
     unicode="ï‚"
     d="M 0,35.1654 V 9.0182 Q 0,5.2828 2.6680895,2.6681 5.336179,0.0534 9.0181425,0 h 6.8836705 q 1.547492,0 2.561366,1.0673 1.013874,1.0672 1.067236,2.4546 0,1.5475 -1.067236,2.5614 -1.067235,1.0138 -2.561366,1.0672 H 9.0181425 q -0.8004268,0 -1.3340447,0.5336 -0.5336179,0.5336 -0.5336179,1.3341 v 26.1472 q 0,0.7471 0.5336179,1.3341 0.5336179,0.587 1.3340447,0.5336 H 40.394875 q 0.800427,0 1.334045,-0.5336 0.533618,-0.5336 0.533618,-1.3341 v -3.2017 q 0,-1.4407 1.067235,-2.508 1.067236,-1.0672 2.454643,-1.0672 1.49413,0 2.561366,1.0672 1.067236,1.0673 1.013874,2.508 v 3.2017 q 0,3.7354 -2.614728,6.4035 -2.614728,2.668 -6.350053,2.6147 H 9.0181425 q -3.7353253,0 -6.350053,-2.6147 Q 0.05336179,38.9541 0,35.1654 Z m 13.020277,-4.8025 q 2.40128,-4.3223 6.456776,-7.0438 4.055496,-2.7214 8.911419,-3.1483 2.241195,-0.1601 3.948773,0.1067 v 5.4963 q 0,1.1739 0.586979,1.6008 0.58698,0.4269 1.440769,-0.2134 L 49.466379,16.1153 q 0.533618,-0.4269 0.533618,-1.0139 0,-0.3202 -0.106723,-0.587 -0.106724,-0.2668 -0.320171,-0.3735 L 49.466379,14.0342 34.364993,2.9883 Q 33.564566,2.3479 32.924224,2.7748 32.283883,3.2017 32.337245,4.3757 v 4.4824 q -0.373533,0 -1.067236,0.053 -3.895411,0.3736 -7.310565,2.1879 -3.415155,1.8143 -5.816435,4.7492 -2.401281,2.9349 -3.842049,6.6168 -1.440769,3.682 -1.280683,7.8976 z"
     horiz-adv-x="937.5"
     id="path2"
     inkscape:connector-curvature="0"
     style="stroke-width:0.99999994" />
</svg>
