<?xml version="1.0" encoding="UTF-8" standalone="no"?>
<svg
   xmlns:dc="http://purl.org/dc/elements/1.1/"
   xmlns:cc="http://creativecommons.org/ns#"
   xmlns:rdf="http://www.w3.org/1999/02/22-rdf-syntax-ns#"
   xmlns:svg="http://www.w3.org/2000/svg"
   xmlns="http://www.w3.org/2000/svg"
   xmlns:sodipodi="http://sodipodi.sourceforge.net/DTD/sodipodi-0.dtd"
   xmlns:inkscape="http://www.inkscape.org/namespaces/inkscape"
   width="50"
   height="32.150623"
   version="1.1"
   id="svg4"
   sodipodi:docname="eye.svg"
   inkscape:version="0.92.1 r15371">
  <metadata
     id="metadata10">
    <rdf:RDF>
      <cc:Work
         rdf:about="">
        <dc:format>image/svg+xml</dc:format>
        <dc:type
           rdf:resource="http://purl.org/dc/dcmitype/StillImage" />
        <dc:title></dc:title>
      </cc:Work>
    </rdf:RDF>
  </metadata>
  <defs
     id="defs8" />
  <sodipodi:namedview
     pagecolor="#ffffff"
     bordercolor="#666666"
     borderopacity="1"
     objecttolerance="10"
     gridtolerance="10"
     guidetolerance="10"
     inkscape:pageopacity="0"
     inkscape:pageshadow="2"
     inkscape:window-width="640"
     inkscape:window-height="480"
     id="namedview6"
     showgrid="false"
     fit-margin-top="0"
     fit-margin-left="0"
     fit-margin-right="0"
     fit-margin-bottom="0"
     inkscape:zoom="0.50533333"
     inkscape:cx="345.31662"
     inkscape:cy="753.04222"
     inkscape:current-layer="svg4" />
  <path
     glyph-name="eye"
     unicode=""
     d="m 46.45,16.100625 q -4.25,-6.6 -10.65,-9.85 1.7,2.9 1.7,6.25 0,5.15 -3.65,8.85 -3.65,3.7 -8.85,3.65 -5.2,-0.05 -8.85,-3.65 -3.65,-3.6 -3.65,-8.85 0,-3.35 1.7,-6.25 -6.4,3.25 -10.65,9.85 3.75,5.7 9.35,9.1 5.6,3.4 12.1,3.4 6.5,0 12.15,-3.4 5.65,-3.4 9.3,-9.1 z m -20.1,-10.75 q 0,-0.55 -0.4,-0.95 -0.4,-0.4 -0.95,-0.35 -3.5,0 -6,2.5 -2.5,2.5 -2.5,5.95 0,0.55 0.4,0.95 0.4,0.4 0.95,0.4 0.55,0 0.95,-0.4 0.4,-0.4 0.4,-0.95 0,-2.4 1.7,-4.1 1.7,-1.7 4.1,-1.7 0.55,0 0.95,-0.4 0.4,-0.4 0.4,-0.95 z m 23.65,10.75 q 0,0.95 -0.55,1.9 -3.9,6.45 -10.5,10.3 -6.6,3.85 -13.95,3.85 -7.35,0 -13.95,-3.85 -6.6,-3.85 -10.5,-10.3 -0.55,-0.95 -0.55,-1.9 0,-0.95 0.55,-1.95 3.9,-6.4 10.5,-10.25 6.6,-3.85 13.95,-3.9 7.35,-0.05 13.95,3.9 6.6,3.95 10.5,10.25 0.55,1 0.55,1.95 z"
     horiz-adv-x="1000"
     id="path2"
     inkscape:connector-curvature="0"
     style="stroke-width:1" />
</svg>
