<?xml version="1.0" encoding="UTF-8" standalone="no"?>
<svg
   xmlns:dc="http://purl.org/dc/elements/1.1/"
   xmlns:cc="http://creativecommons.org/ns#"
   xmlns:rdf="http://www.w3.org/1999/02/22-rdf-syntax-ns#"
   xmlns:svg="http://www.w3.org/2000/svg"
   xmlns="http://www.w3.org/2000/svg"
   xmlns:sodipodi="http://sodipodi.sourceforge.net/DTD/sodipodi-0.dtd"
   xmlns:inkscape="http://www.inkscape.org/namespaces/inkscape"
   width="50.000004"
   height="50.18824"
   version="1.1"
   id="svg4"
   sodipodi:docname="018.svg"
   inkscape:version="0.92.1 r15371">
  <metadata
     id="metadata10">
    <rdf:RDF>
      <cc:Work
         rdf:about="">
        <dc:format>image/svg+xml</dc:format>
        <dc:type
           rdf:resource="http://purl.org/dc/dcmitype/StillImage" />
        <dc:title></dc:title>
      </cc:Work>
    </rdf:RDF>
  </metadata>
  <defs
     id="defs8" />
  <sodipodi:namedview
     pagecolor="#ffffff"
     bordercolor="#666666"
     borderopacity="1"
     objecttolerance="10"
     gridtolerance="10"
     guidetolerance="10"
     inkscape:pageopacity="0"
     inkscape:pageshadow="2"
     inkscape:window-width="640"
     inkscape:window-height="480"
     id="namedview6"
     showgrid="false"
     fit-margin-top="0"
     fit-margin-left="0"
     fit-margin-right="0"
     fit-margin-bottom="0"
     inkscape:zoom="0.25266667"
     inkscape:cx="686.70324"
     inkscape:cy="836.94339"
     inkscape:current-layer="svg4" />
  <path
     glyph-name="forbidden"
     unicode=""
     d="m 42.707357,25.041524 q 0,-5.2507 -2.800376,-9.5679 l -24.561632,24.5032 q 4.433928,2.9171 9.684634,2.9171 3.617152,0 6.884258,-1.4585 3.267105,-1.4586 5.600752,-3.7922 2.333647,-2.3336 3.792176,-5.6591 1.458529,-3.3254 1.400188,-6.9426 z m -32.496031,9.743 24.561632,-24.5616 Q 30.39737,7.3058235 25.029983,7.3058235 q -4.842317,0 -8.926199,2.3336 -4.083882,2.3337005 -6.4175292,6.4759005 -2.3336468,4.1422 -2.3919879,8.9262 0,5.3091 2.9170591,9.743 z m 39.788677,-9.743 q 0,5.134 -1.983599,9.8013 -1.9836,4.6673 -5.309047,7.9928 -3.325446,3.3254 -7.99274,5.3674 -4.667294,2.0419 -9.684634,1.9836 -5.017341,-0.058 -9.742976,-1.9836 -4.725634,-1.9253 -7.9927401,-5.3674 -3.2671056,-3.4422 -5.3090465,-7.9928 -2.04194098,-4.5506 -1.98359981,-9.8013 0.05834117,-5.2507 1.98359981,-9.743 1.9252586,-4.4922 5.3090465,-7.9927005 3.3837881,-3.5005 7.9927401,-5.3091 4.608953,-1.8085 9.742976,-1.9836 5.134023,-0.175 9.684634,1.9836 4.550611,2.1587 7.99274,5.3091 3.442129,3.1504005 5.309047,7.9927005 1.866917,4.8423 1.983599,9.743 z"
     horiz-adv-x="857.1"
     id="path2"
     inkscape:connector-curvature="0"
     style="stroke-width:1.00000012" />
</svg>
