<svg xmlns="http://www.w3.org/2000/svg" viewBox="0 0 32 32" id="svg22" width="32" height="32"><style id="style2">.st0{fill:#020202}.st1,.st2{fill:none;stroke:#000;stroke-width:6;stroke-linejoin:round;stroke-miterlimit:10}.st2{fill:#fff;stroke:#fff;stroke-width:4}</style><path d="M15.947-.049A3.5 3.5 0 0 0 12.5 3.5v9.949c-.067 4.733 7.067 4.733 7 0V3.5a3.5 3.5 0 0 0-3.553-3.549zM16 18.996A3.501 3.501 0 1 0 16 26a3.501 3.501 0 0 0 0-7.004z" id="path6"/><path d="M9.5 13.012L.576 26.576C-.954 28.903.714 32 3.5 32h25c2.786 0 4.455-3.097 2.924-5.424L22.5 13.012v.394c.025 1.793-.724 3.455-1.844 4.614 1.13 1.173 1.846 2.748 1.844 4.482-.001 3.553-2.945 6.497-6.498 6.498h-.004c-3.553-.001-6.497-2.945-6.498-6.498-.002-1.734.715-3.309 1.844-4.482-1.12-1.159-1.87-2.82-1.844-4.614z" id="rect4520-6" fill-opacity=".314" stroke-width="7" stroke-linecap="round" stroke-linejoin="round" stroke-opacity=".784" paint-order="fill markers stroke"/></svg>