<svg xmlns="http://www.w3.org/2000/svg" height="27.205" width="32" viewBox="0 0 32 27.205221"><g stroke-width="3.128" fill="#fff"><path d="M3.197 1.63C1.598 1.63 0 3.23 0 4.827v19.181c0 1.599 1.598 3.197 3.197 3.197h19.181c1.598 0 3.197-1.598 3.197-3.197v-8.541l-6.669 6.668c-2.47 2.47-6.57 2.47-9.04 0l-4.75-4.75c-2.555-2.453-2.597-6.628-.093-9.133 2.505-2.504 6.68-2.462 9.134.093l-.046-.046.275.274 6.943-6.943z" fill-opacity=".314"/><path style="line-height:normal;font-variant-ligatures:normal;font-variant-position:normal;font-variant-caps:normal;font-variant-numeric:normal;font-variant-alternates:normal;font-feature-settings:normal;text-indent:0;text-align:start;text-decoration-line:none;text-decoration-style:solid;text-decoration-color:#000;text-transform:none;text-orientation:mixed;shape-padding:0;isolation:auto;mix-blend-mode:normal" d="M28.709.001A3.197 3.197 0 0 0 26.51.97L14.386 13.094 11.85 10.56a3.197 3.197 0 1 0-4.52 4.52l4.795 4.796a3.197 3.197 0 0 0 4.52 0L31.032 5.489A3.197 3.197 0 0 0 28.709.001z" color="#000" font-weight="400" font-family="sans-serif" white-space="normal" overflow="visible" fill-rule="evenodd"/></g></svg>