<?xml version="1.0" encoding="UTF-8" standalone="no"?>
<svg
   xmlns:dc="http://purl.org/dc/elements/1.1/"
   xmlns:cc="http://creativecommons.org/ns#"
   xmlns:rdf="http://www.w3.org/1999/02/22-rdf-syntax-ns#"
   xmlns:svg="http://www.w3.org/2000/svg"
   xmlns="http://www.w3.org/2000/svg"
   xmlns:sodipodi="http://sodipodi.sourceforge.net/DTD/sodipodi-0.dtd"
   xmlns:inkscape="http://www.inkscape.org/namespaces/inkscape"
   width="49.999996"
   height="49.998001"
   version="1.1"
   id="svg4"
   sodipodi:docname="upload.svg"
   inkscape:version="0.92.1 r15371">
  <metadata
     id="metadata10">
    <rdf:RDF>
      <cc:Work
         rdf:about="">
        <dc:format>image/svg+xml</dc:format>
        <dc:type
           rdf:resource="http://purl.org/dc/dcmitype/StillImage" />
        <dc:title></dc:title>
      </cc:Work>
    </rdf:RDF>
  </metadata>
  <defs
     id="defs8" />
  <sodipodi:namedview
     pagecolor="#ffffff"
     bordercolor="#666666"
     borderopacity="1"
     objecttolerance="10"
     gridtolerance="10"
     guidetolerance="10"
     inkscape:pageopacity="0"
     inkscape:pageshadow="2"
     inkscape:window-width="640"
     inkscape:window-height="480"
     id="namedview6"
     showgrid="false"
     fit-margin-top="0"
     fit-margin-left="0"
     fit-margin-right="0"
     fit-margin-bottom="0"
     inkscape:zoom="0.50533333"
     inkscape:cx="345.31662"
     inkscape:cy="865.04222"
     inkscape:current-layer="svg4" />
  <path
     glyph-name="upload"
     unicode=""
     d="m 0,39.166 v -3.8953 q 0,-1.7608 1.2806304,-2.9881 1.2806304,-1.2273 3.0414972,-1.2806 1.7608668,-0.053 2.9881376,1.2806 1.2272708,1.334 1.2806304,2.9881 v 3.8953 q 0,0.9071 0.6403152,1.5474 0.6403152,0.6403 1.6007882,0.6937 h 28.333947 q 0.960473,0 1.600788,-0.6937 0.640316,-0.6937 0.640316,-1.5474 v -3.8953 q 0,-1.7608 1.28063,-2.9881 1.28063,-1.2273 2.988138,-1.2806 1.707507,-0.053 3.041497,1.2806 1.33399,1.334 1.28063,2.9881 v 3.8953 q 0,4.4822 -3.148216,7.6304 -3.148217,3.1482 -7.683783,3.2016 H 10.831999 q -4.4822066,0 -7.630423,-3.1482 Q 0.0533596,43.7016 0,39.166 Z M 8.270738,17.4486 q 0,-1.7608 1.2806304,-3.0415 L 22.73119,1.2273 Q 23.95846,0 25.772687,0 q 1.760867,0 2.988137,1.2273 l 12.966383,12.913 q 1.227271,1.2807 1.227271,3.0415 0,1.7609 -1.227271,3.0415 -1.28063,1.2273 -3.041497,1.2273 -1.760867,0 -3.041497,-1.2273 l -5.602758,-5.6027 v 18.3557 q 0,1.7608 -1.280631,3.0415 -1.28063,1.2806 -2.988137,1.2806 -1.760867,0 -3.041497,-1.2806 -1.280631,-1.2807 -1.280631,-3.0415 V 14.6206 l -5.869556,5.8695 q -1.28063,1.2273 -3.041497,1.2273 -1.760867,0 -2.9881376,-1.2273 Q 8.3240976,19.2629 8.270738,17.4486 Z"
     horiz-adv-x="937.5"
     id="path2"
     inkscape:connector-curvature="0"
     style="stroke-width:0.99999988" />
</svg>
